<svg xmlns="http://www.w3.org/2000/svg" width="43.438" height="43.281" viewBox="0 0 43.438 43.281">
  <metadata><?xpacket begin="﻿" id="W5M0MpCehiHzreSzNTczkc9d"?>
<x:xmpmeta xmlns:x="adobe:ns:meta/" x:xmptk="Adobe XMP Core 5.6-c142 79.160924, 2017/07/13-01:06:39        ">
   <rdf:RDF xmlns:rdf="http://www.w3.org/1999/02/22-rdf-syntax-ns#">
      <rdf:Description rdf:about=""/>
   </rdf:RDF>
</x:xmpmeta>
                                                                                                    
                                                                                                    
                                                                                                    
                                                                                                    
                                                                                                    
                                                                                                    
                                                                                                    
                                                                                                    
                                                                                                    
                                                                                                    
                                                                                                    
                                                                                                    
                                                                                                    
                                                                                                    
                                                                                                    
                                                                                                    
                                                                                                    
                                                                                                    
                                                                                                    
                                                                                                    
                           
<?xpacket end="w"?></metadata>
<defs>
    <style>
      .cls-1 {
        fill: #e9c50e;
        fill-rule: evenodd;
      }
    </style>
  </defs>
  <path id="Фигура_4" data-name="Фигура 4" class="cls-1" d="M639.841,778.672h0Zm29.467-13.084a17.471,17.471,0,0,0-4.593-11.777c0,0.06.059,0.06,0.059,0.119a17.4,17.4,0,0,1,4.534,11.658h0Zm-2.923-3.985h0a18.8,18.8,0,0,1-18.79,18.735A18.76,18.76,0,0,0,666.385,761.6ZM647.6,744A17.565,17.565,0,0,0,630,761.543,17.6,17.6,0,0,1,647.6,744Zm21.236,13.917c0,0.06.059,0.06,0.059,0.119a17.481,17.481,0,0,1,4.534,11.776h0A17.55,17.55,0,0,0,668.831,757.915Zm1.67,7.791h0a18.759,18.759,0,0,1-26.485,17.011c0.06,0.059.06,0.059,0.119,0.119a19.221,19.221,0,0,0,7.576,1.606A18.761,18.761,0,0,0,670.5,765.706Zm0-.059h0a18.773,18.773,0,0,1-18.79,18.795,19.444,19.444,0,0,1-7.576-1.606,17.566,17.566,0,0,0,24.755-24.861A20.1,20.1,0,0,1,670.5,765.647Zm-40.5-4.1a17.6,17.6,0,1,1,17.6,17.546A17.565,17.565,0,0,1,630,761.543Zm9.9,17.189h0a19.357,19.357,0,0,0,7.7,1.606,18.8,18.8,0,0,0,18.79-18.735,18.558,18.558,0,0,0-1.67-7.732l0.059,0.059c0-.059-0.059-0.059-0.059-0.119a17.471,17.471,0,0,1,4.593,11.777h0v0.059A17.623,17.623,0,0,1,639.9,778.732Zm15.927,8.565a17.572,17.572,0,0,1-11.692-4.461,0.23,0.23,0,0,1-.119-0.119A18.759,18.759,0,0,0,670.5,765.706v-0.059a19.579,19.579,0,0,0-1.611-7.613,0.12,0.12,0,0,0-.059-0.119,17.512,17.512,0,0,1,4.593,11.836h0A17.566,17.566,0,0,1,655.827,787.3Zm13.481-21.65h0a17.439,17.439,0,0,0-4.534-11.717l-0.059-.059a18.558,18.558,0,0,1,1.67,7.732h0a18.806,18.806,0,0,1-26.544,17.069h0l0.059,0.06A17.623,17.623,0,0,0,669.308,765.647ZM647.6,744a17.546,17.546,0,1,0,17.6,17.545A17.6,17.6,0,0,0,647.6,744Zm4.653,24.385a4.935,4.935,0,0,1-3.281,1.606V771.6H647V769.93a5.06,5.06,0,0,1-2.983-1.309c-0.835-.773-1.253-2.082-1.253-3.985V763.8H647v1.012a13.272,13.272,0,0,0,.119,2.141,0.564,0.564,0,0,0,.656.416,0.854,0.854,0,0,0,.656-0.3,1.158,1.158,0,0,0,.239-0.832,8.008,8.008,0,0,0-.179-2.022,2.884,2.884,0,0,0-1.372-1.309c-1.312-.832-2.148-1.427-2.625-1.784a3.8,3.8,0,0,1-1.193-1.606,6.014,6.014,0,0,1-.537-2.32,4.04,4.04,0,0,1,1.074-2.973,5.024,5.024,0,0,1,3.221-1.309v-1.368h1.969v1.368a4.626,4.626,0,0,1,2.923,1.309,4.093,4.093,0,0,1,.954,2.914,4.137,4.137,0,0,1-.119.773H648.55V757.2a6.708,6.708,0,0,0-.12-1.486,0.586,0.586,0,0,0-.656-0.358,0.736,0.736,0,0,0-.6.3,1.66,1.66,0,0,0-.179.892,1.713,1.713,0,0,0,.417,1.368,17.558,17.558,0,0,0,2.267,1.546,19,19,0,0,1,2.207,1.487,4.08,4.08,0,0,1,1.014,1.487,5.677,5.677,0,0,1,.418,2.38A5.535,5.535,0,0,1,652.248,768.383Zm-12.407,10.289h0Zm12.407-10.289a4.935,4.935,0,0,1-3.281,1.606V771.6H647V769.93a5.06,5.06,0,0,1-2.983-1.309c-0.835-.773-1.253-2.082-1.253-3.985V763.8H647v1.012a13.272,13.272,0,0,0,.119,2.141,0.564,0.564,0,0,0,.656.416,0.854,0.854,0,0,0,.656-0.3,1.158,1.158,0,0,0,.239-0.832,8.008,8.008,0,0,0-.179-2.022,2.884,2.884,0,0,0-1.372-1.309c-1.312-.832-2.148-1.427-2.625-1.784a3.8,3.8,0,0,1-1.193-1.606,6.014,6.014,0,0,1-.537-2.32,4.04,4.04,0,0,1,1.074-2.973,5.024,5.024,0,0,1,3.221-1.309v-1.368h1.969v1.368a4.626,4.626,0,0,1,2.923,1.309,4.093,4.093,0,0,1,.954,2.914,4.137,4.137,0,0,1-.119.773H648.55V757.2a6.708,6.708,0,0,0-.12-1.486,0.586,0.586,0,0,0-.656-0.358,0.736,0.736,0,0,0-.6.3,1.66,1.66,0,0,0-.179.892,1.713,1.713,0,0,0,.417,1.368,17.558,17.558,0,0,0,2.267,1.546,19,19,0,0,1,2.207,1.487,4.08,4.08,0,0,1,1.014,1.487,5.677,5.677,0,0,1,.418,2.38A5.535,5.535,0,0,1,652.248,768.383Z" transform="translate(-630 -744)"/>
</svg>
