<svg xmlns="http://www.w3.org/2000/svg" width="52.13" height="51.969" viewBox="0 0 52.13 51.969">
  <metadata><?xpacket begin="﻿" id="W5M0MpCehiHzreSzNTczkc9d"?>
<x:xmpmeta xmlns:x="adobe:ns:meta/" x:xmptk="Adobe XMP Core 5.6-c142 79.160924, 2017/07/13-01:06:39        ">
   <rdf:RDF xmlns:rdf="http://www.w3.org/1999/02/22-rdf-syntax-ns#">
      <rdf:Description rdf:about=""/>
   </rdf:RDF>
</x:xmpmeta>
                                                                                                    
                                                                                                    
                                                                                                    
                                                                                                    
                                                                                                    
                                                                                                    
                                                                                                    
                                                                                                    
                                                                                                    
                                                                                                    
                                                                                                    
                                                                                                    
                                                                                                    
                                                                                                    
                                                                                                    
                                                                                                    
                                                                                                    
                                                                                                    
                                                                                                    
                                                                                                    
                           
<?xpacket end="w"?></metadata>
<defs>
    <style>
      .cls-1 {
        fill: #e9c50e;
        fill-rule: evenodd;
      }
    </style>
  </defs>
  <path id="Фигура_5" data-name="Фигура 5" class="cls-1" d="M1287.78,737.265l-10.2,17.616,1.88,1.087,8.87-15.311,24.68,14.2,1.34-2.3Zm0.89,4.641-10.21,17.616,1.89,1.086,8.87-15.31L1313.9,759.5l1.34-2.307Zm0.98,4.694-9.56,16.5,19.72,11.35c2.02-1.638,5.69-4.288,8.35-5.029,3.29-.914,5.51-1.763,6.82-1.518l2.92-5.039Zm12.13,10.721,1.04,0.6-0.9,1.561a3.448,3.448,0,0,1,1.26,1.845l-1.14.377a2.572,2.572,0,0,0-1.21-1.518,1.072,1.072,0,0,0-1.59.207c-0.29.51-.15,0.9,0.82,1.945,1.02,1.11,1.58,2.11.81,3.438a2.449,2.449,0,0,1-3.17.981l-0.94,1.624-1.04-.6,0.91-1.571a3.95,3.95,0,0,1-1.69-2.249l1.18-.38a2.942,2.942,0,0,0,1.38,1.758,1.293,1.293,0,0,0,1.92-.3c0.35-.594.2-1.032-0.71-2.009-1.24-1.322-1.52-2.294-.91-3.356a2.308,2.308,0,0,1,3.07-.794Zm12.6,12.169c-1.35.035-3.39,0.773-6.22,1.559-3.77,1.049-9.55,5.919-9.82,6.338s1.29,2.749,1.83,3.115,9.23-1.86,8.92-1.35-8.11,2.5-8.35,2.983-2.32-.639-2.34-0.856-1.53-2.946-1.53-2.946-15.73-3.121-16.75-3.049-3.33,2.06-3.11,2.719,24.44,11.05,25.58,11.23,14.97-7.164,16.84-8.06,6.12,0.7,6.12.7l3.56-8.036s-12.4-3.45-13.6-4.127a2.168,2.168,0,0,0-1.13-.224h0Z" transform="translate(-1277 -737.25)"/>
</svg>
