<svg xmlns="http://www.w3.org/2000/svg" width="52.125" height="38.125" viewBox="0 0 52.125 38.125">
  <metadata><?xpacket begin="﻿" id="W5M0MpCehiHzreSzNTczkc9d"?>
<x:xmpmeta xmlns:x="adobe:ns:meta/" x:xmptk="Adobe XMP Core 5.6-c142 79.160924, 2017/07/13-01:06:39        ">
   <rdf:RDF xmlns:rdf="http://www.w3.org/1999/02/22-rdf-syntax-ns#">
      <rdf:Description rdf:about=""/>
   </rdf:RDF>
</x:xmpmeta>
                                                                                                    
                                                                                                    
                                                                                                    
                                                                                                    
                                                                                                    
                                                                                                    
                                                                                                    
                                                                                                    
                                                                                                    
                                                                                                    
                                                                                                    
                                                                                                    
                                                                                                    
                                                                                                    
                                                                                                    
                                                                                                    
                                                                                                    
                                                                                                    
                                                                                                    
                                                                                                    
                           
<?xpacket end="w"?></metadata>
<defs>
    <style>
      .cls-1 {
        fill: #e9c50e;
        fill-rule: evenodd;
      }
    </style>
  </defs>
  <path id="Фигура_3" data-name="Фигура 3" class="cls-1" d="M1002,777.109v4.882H949.878v-5.138A3.726,3.726,0,0,1,951.229,774c2.9-2.364,5.145-4.44,8.434-6.2a67.266,67.266,0,0,0,3.519,7.229,0.179,0.179,0,0,0,.25.052,0.177,0.177,0,0,0,.072-0.1c0.323-.956,1.314-3.442,2.775-3.336a0.126,0.126,0,0,0,.131-0.122,0.128,0.128,0,0,0-.055-0.112,49.915,49.915,0,0,1-5.28-4.765V763.28a8.439,8.439,0,0,1-1.023-2.847c-0.394-.034-0.909-0.59-1.461-2.586-0.7-2.52-.066-3.059.547-3.07-0.06-.216-0.115-0.439-0.153-0.656h0a8.1,8.1,0,0,1,0-3.592,7.85,7.85,0,0,1,2.046-3.7,9.984,9.984,0,0,1,1.91-1.608,7.384,7.384,0,0,1,1.855-.967h0a6.065,6.065,0,0,1,1.685-.328,6.857,6.857,0,0,1,4.236.912,5.3,5.3,0,0,1,2.063,1.991s3.425,0.25,2.265,7.312c-0.038.217-.093,0.434-0.153,0.65,0.651,0,1.313.512,0.6,3.076-0.547,2-1.1,2.552-1.461,2.585a8.423,8.423,0,0,1-1.023,2.847v3.387a49.923,49.923,0,0,1-5.281,4.765,0.129,0.129,0,0,0-.033.178,0.124,0.124,0,0,0,.11.056c1.461-.128,2.451,2.357,2.774,3.336a0.179,0.179,0,0,0,.227.119,0.19,0.19,0,0,0,.1-0.074,80.037,80.037,0,0,0,3.518-7.229,60.975,60.975,0,0,1,6.4,3.987,15.654,15.654,0,0,0,2.036-.856l0.109-.067h0a1.22,1.22,0,0,0,.547-1.023v-2.136c-5.4.05-6.993-2.3-6.993-2.3s3.086-.05,2.895-8.341,3.562-9.648,4.963-10.187c4.077-1.574,6.123.929,6.123,0.929,4.728-.445,6.019,4.8,5.472,10.776s2.649,6.906,2.649,6.906c-2.216,2.3-6.895,2.158-6.895,2.158v0.556h0v1.585a1.224,1.224,0,0,0,.547,1.023h0l0.131,0.083a43.029,43.029,0,0,0,4.21,1.813,17.712,17.712,0,0,1,3.2,1.229A3.92,3.92,0,0,1,1002,777.109Z" transform="translate(-949.875 -743.875)"/>
</svg>
